{"title":"Northwest.2013.720p.BRRip.x264-Fastbet99","uid":8917809,"size":1174241519,"categoryP":"video","categoryS":"hd___movies","magnet":"?xt=urn:btih:a6fb619964b7b4f908deea699fe98a20542c0639&amp;dn=Northwest.2013.720p.BRRip.x264-Fastbet99&amp;tr=udp%3A%2F%2Ftracker.openbittorrent.com%3A80&amp;tr=udp%3A%2F%2Fopen.demonii.com%3A1337&amp;tr=udp%3A%2F%2Ftracker.coppersurfer.tk%3A6969&amp;tr=udp%3A%2F%2Fexodus.desync.com%3A6969","seeders":2,"leechers":0,"uploader":"Fastbet99","files":-1,"time":1379185157,"description":"Northwest (2013)\n\nIMDB Info\t\t\t\t : http://www.imdb.com/title/tt2650986\n\nSource\t\t\t\t\t : PHD (Thanks)\nComplete name                            : Northwest.2013.720p.BRRip.x264-Fastbet99.mp4\nFormat                                   : MPEG-4\nFormat profile                           : Base Media\nCodec ID                                 : isom\nFile size                                : 1.09 GiB\nDuration                                 : 1h 30mn\nOverall bit rate mode                    : Variable\nOverall bit rate                         : 1 731 Kbps\n\nVideo\nID                                       : 1\nFormat                                   : AVC\nFormat/Info                              : Advanced Video Codec\nFormat profile                           : &lt;a class=&quot;__cf_email__&quot; href=&quot;/cdn-cgi/l/email-protection&quot; data-cfemail=&quot;99d1f0fef1d9d5adb7a8&quot;&gt;[email&amp;#160;protected]&lt;/a&gt;&lt;script cf-hash='f9e31' type=&quot;text/javascript&quot;&gt;\n/* &lt;![CDATA[ */!function(){try{var t=&quot;currentScript&quot;in document?document.currentScript:function(){for(var t=document.getElementsByTagName(&quot;script&quot;),e=t.length;e--;)if(t[e].getAttribute(&quot;cf-hash&quot;))return t[e]}();if(t&amp;&amp;t.previousSibling){var e,r,n,i,c=t.previousSibling,a=c.getAttribute(&quot;data-cfemail&quot;);if(a){for(e=&quot;&quot;,r=parseInt(a.substr(0,2),16),n=2;a.length-n;n+=2)i=parseInt(a.substr(n,2),16)^r,e+=String.fromCharCode(i);e=document.createTextNode(e),c.parentNode.replaceChild(e,c)}}}catch(u){}}();/* ]]&gt; */&lt;/script&gt;\nFormat settings, CABAC                   : Yes\nFormat settings, ReFrames                : 4 frames\nCodec ID                                 : avc1\nCodec ID/Info                            : Advanced Video Coding\nDuration                                 : 1h 30mn\nBit rate                                 : 1 617 Kbps\nMaximum bit rate                         : 8 122 Kbps\nWidth                                    : 1 280 pixels\nHeight                                   : 690 pixels\nDisplay aspect ratio                     : 1.85:1\nFrame rate mode                          : Constant\nFrame rate                               : 24.000 fps\nColor space                              : YUV\nChroma subsampling                       : 4:2:0\nBit depth                                : 8 bits\nScan type                                : Progressive\nBits/(Pixel*Frame)                       : 0.076\nStream size                              : 1.02 GiB (93%)\nWriting library                          : x264 core 133 r2334 a3ac64b\n\nAudio\nID                                       : 2\nFormat                                   : AAC\nFormat/Info                              : Advanced Audio Codec\nFormat profile                           : LC\nCodec ID                                 : 40\nDuration                                 : 1h 30mn\nBit rate mode                            : Variable\nBit rate                                 : 96.0 Kbps\nMaximum bit rate                         : 116 Kbps\nChannel(s)                               : 2 channels\nChannel positions                        : Front: L R\nSampling rate                            : 48.0 KHz\nCompression mode                         : Lossy\nStream size                              : 61.8 MiB (6%)\nLanguage                                 : Danish\n\nText #1\nID                                       : 3\nFormat                                   : mp4s\nCodec ID                                 : E0\nDuration                                 : 1h 26mn\nBit rate mode                            : Variable\nBit rate                                 : 3 384 bps\nMaximum bit rate                         : 43.8 Kbps\nStream size                              : 2.10 MiB (0%)\nLanguage                                 : English\n\nText #2\nID                                       : 4\nFormat                                   : mp4s\nCodec ID                                 : E0\nDuration                                 : 1h 30mn\nBit rate mode                            : Variable\nBit rate                                 : 2 808 bps\nMaximum bit rate                         : 40.1 Kbps\nStream size                              : 1.82 MiB (0%)\nLanguage                                 : Swedish\n\nText #3\nID                                       : 5\nFormat                                   : mp4s\nCodec ID                                 : E0\nDuration                                 : 1h 30mn\nBit rate mode                            : Variable\nBit rate                                 : 2 984 bps\nMaximum bit rate                         : 39.7 Kbps\nStream size                              : 1.93 MiB (0%)\nLanguage                                 : Norwegian\n\nText #4\nID                                       : 6\nFormat                                   : mp4s\nCodec ID                                 : E0\nDuration                                 : 1h 29mn\nBit rate mode                            : Variable\nBit rate                                 : 3 208 bps\nMaximum bit rate                         : 44.0 Kbps\nStream size                              : 2.06 MiB (0%)\nLanguage                                 : Danish\n\nText #5\nID                                       : 7\nFormat                                   : mp4s\nCodec ID                                 : E0\nDuration                                 : 56mn 45s\nBit rate mode                            : Variable\nBit rate                                 : 160 bps\nMaximum bit rate                         : 34.9 Kbps\nStream size                              : 69.5 KiB (0%)\nLanguage                                 : Danish\n\nText #6\nID                                       : 8\nFormat                                   : mp4s\nCodec ID                                 : E0\nDuration                                 : 1h 30mn\nBit rate mode                            : Variable\nBit rate                                 : 2 992 bps\nMaximum bit rate                         : 43.8 Kbps\nStream size                              : 1.94 MiB (0%)\nLanguage                                 : Finnish\nEncoder\t\t\t\t\t : Fastbet99\n\nScreenshots\n &lt;a href=&quot;\nhttp://lookpic.com/O/i2/389/ZqTzc2IN.jpeg&quot; rel=&quot;nofollow&quot; target=&quot;_NEW&quot;&gt;\nhttp://lookpic.com/O/i2/389/ZqTzc2IN.jpeg&lt;/a&gt;\n\nStairway To heaven - Help People With Keep Seed As Long You Can\n","torrent":{"xt":"urn:btih:a6fb619964b7b4f908deea699fe98a20542c0639","amp;dn":"Northwest.2013.720p.BRRip.x264-Fastbet99","amp;tr":["udp%3A%2F%2Ftracker.openbittorrent.com%3A80","udp%3A%2F%2Fopen.demonii.com%3A1337","udp%3A%2F%2Ftracker.coppersurfer.tk%3A6969","udp%3A%2F%2Fexodus.desync.com%3A6969"],"infoHash":"a6fb619964b7b4f908deea699fe98a20542c0639","infoHashBuffer":{"type":"Buffer","data":[166,251,97,153,100,183,180,249,8,222,234,105,159,233,138,32,84,44,6,57]},"announce":[],"urlList":[]}}